<mxfile host="app.diagrams.net" agent="Mozilla/5.0 (X11; Linux x86_64; rv:142.0) Gecko/20100101 Firefox/142.0" version="28.1.1">
  <diagram name="Page-1" id="rD1pq2RR0rX45yfyD-T1">
    <mxGraphModel dx="1426" dy="797" grid="0" gridSize="10" guides="1" tooltips="1" connect="1" arrows="1" fold="1" page="1" pageScale="1" pageWidth="850" pageHeight="1100" background="#ffffff" math="0" shadow="0">
      <root>
        <mxCell id="0" />
        <mxCell id="1" parent="0" />
        <mxCell id="uSHFyEGqvVHMhk2APjxr-140" value="" style="edgeStyle=orthogonalEdgeStyle;rounded=0;orthogonalLoop=1;jettySize=auto;html=1;" edge="1" parent="1">
          <mxGeometry relative="1" as="geometry">
            <mxPoint x="400" y="150" as="targetPoint" />
          </mxGeometry>
        </mxCell>
        <mxCell id="uSHFyEGqvVHMhk2APjxr-164" style="edgeStyle=orthogonalEdgeStyle;rounded=0;orthogonalLoop=1;jettySize=auto;html=1;exitX=0.5;exitY=1;exitDx=0;exitDy=0;entryX=0.5;entryY=0;entryDx=0;entryDy=0;" edge="1" parent="1" source="uSHFyEGqvVHMhk2APjxr-165" target="uSHFyEGqvVHMhk2APjxr-167">
          <mxGeometry relative="1" as="geometry" />
        </mxCell>
        <mxCell id="uSHFyEGqvVHMhk2APjxr-165" value="" style="ellipse;whiteSpace=wrap;html=1;aspect=fixed;" vertex="1" parent="1">
          <mxGeometry x="280" y="200" width="40" height="40" as="geometry" />
        </mxCell>
        <mxCell id="uSHFyEGqvVHMhk2APjxr-166" style="edgeStyle=orthogonalEdgeStyle;rounded=0;orthogonalLoop=1;jettySize=auto;html=1;exitX=0.5;exitY=1;exitDx=0;exitDy=0;entryX=0.5;entryY=0;entryDx=0;entryDy=0;" edge="1" parent="1" source="uSHFyEGqvVHMhk2APjxr-167">
          <mxGeometry relative="1" as="geometry">
            <mxPoint x="299.9949999999999" y="360" as="targetPoint" />
          </mxGeometry>
        </mxCell>
        <mxCell id="uSHFyEGqvVHMhk2APjxr-167" value="Receive a list of integers" style="rounded=1;whiteSpace=wrap;html=1;" vertex="1" parent="1">
          <mxGeometry x="240" y="280" width="120" height="40" as="geometry" />
        </mxCell>
        <mxCell id="uSHFyEGqvVHMhk2APjxr-168" value="" style="ellipse;whiteSpace=wrap;html=1;aspect=fixed;strokeWidth=3;" vertex="1" parent="1">
          <mxGeometry x="550" y="440" width="40" height="40" as="geometry" />
        </mxCell>
        <mxCell id="uSHFyEGqvVHMhk2APjxr-169" style="edgeStyle=orthogonalEdgeStyle;rounded=0;orthogonalLoop=1;jettySize=auto;html=1;exitX=0.5;exitY=1;exitDx=0;exitDy=0;entryX=0.5;entryY=0;entryDx=0;entryDy=0;" edge="1" parent="1" source="uSHFyEGqvVHMhk2APjxr-170" target="uSHFyEGqvVHMhk2APjxr-175">
          <mxGeometry relative="1" as="geometry" />
        </mxCell>
        <mxCell id="uSHFyEGqvVHMhk2APjxr-170" value="Initialise i = 1" style="rounded=1;whiteSpace=wrap;html=1;" vertex="1" parent="1">
          <mxGeometry x="240" y="360" width="120" height="40" as="geometry" />
        </mxCell>
        <mxCell id="uSHFyEGqvVHMhk2APjxr-171" style="edgeStyle=orthogonalEdgeStyle;rounded=0;orthogonalLoop=1;jettySize=auto;html=1;exitX=0.5;exitY=1;exitDx=0;exitDy=0;entryX=0.5;entryY=0;entryDx=0;entryDy=0;" edge="1" parent="1" source="uSHFyEGqvVHMhk2APjxr-175" target="uSHFyEGqvVHMhk2APjxr-187">
          <mxGeometry relative="1" as="geometry" />
        </mxCell>
        <mxCell id="uSHFyEGqvVHMhk2APjxr-172" value="Yes" style="edgeLabel;html=1;align=center;verticalAlign=middle;resizable=0;points=[];" vertex="1" connectable="0" parent="uSHFyEGqvVHMhk2APjxr-171">
          <mxGeometry x="-0.2886" relative="1" as="geometry">
            <mxPoint as="offset" />
          </mxGeometry>
        </mxCell>
        <mxCell id="uSHFyEGqvVHMhk2APjxr-173" style="edgeStyle=orthogonalEdgeStyle;rounded=0;orthogonalLoop=1;jettySize=auto;html=1;exitX=1;exitY=0.5;exitDx=0;exitDy=0;entryX=0;entryY=0.5;entryDx=0;entryDy=0;" edge="1" parent="1" source="uSHFyEGqvVHMhk2APjxr-175" target="uSHFyEGqvVHMhk2APjxr-189">
          <mxGeometry relative="1" as="geometry" />
        </mxCell>
        <mxCell id="uSHFyEGqvVHMhk2APjxr-174" value="&lt;div&gt;No&lt;/div&gt;" style="edgeLabel;html=1;align=center;verticalAlign=middle;resizable=0;points=[];" vertex="1" connectable="0" parent="uSHFyEGqvVHMhk2APjxr-173">
          <mxGeometry x="-0.0088" relative="1" as="geometry">
            <mxPoint as="offset" />
          </mxGeometry>
        </mxCell>
        <mxCell id="uSHFyEGqvVHMhk2APjxr-175" value="i &amp;lt; len(list)" style="rhombus;whiteSpace=wrap;html=1;fontSize=10;" vertex="1" parent="1">
          <mxGeometry x="270" y="430" width="60" height="60" as="geometry" />
        </mxCell>
        <mxCell id="uSHFyEGqvVHMhk2APjxr-176" style="edgeStyle=orthogonalEdgeStyle;rounded=0;orthogonalLoop=1;jettySize=auto;html=1;exitX=0.5;exitY=0;exitDx=0;exitDy=0;" edge="1" parent="1" source="uSHFyEGqvVHMhk2APjxr-177">
          <mxGeometry relative="1" as="geometry">
            <mxPoint x="300" y="410" as="targetPoint" />
            <Array as="points">
              <mxPoint x="130" y="410" />
            </Array>
          </mxGeometry>
        </mxCell>
        <mxCell id="uSHFyEGqvVHMhk2APjxr-177" value="Increase i by 1" style="rounded=1;whiteSpace=wrap;html=1;" vertex="1" parent="1">
          <mxGeometry x="70" y="650" width="120" height="40" as="geometry" />
        </mxCell>
        <mxCell id="uSHFyEGqvVHMhk2APjxr-178" style="edgeStyle=orthogonalEdgeStyle;rounded=0;orthogonalLoop=1;jettySize=auto;html=1;exitX=0;exitY=0.5;exitDx=0;exitDy=0;entryX=1;entryY=0.5;entryDx=0;entryDy=0;" edge="1" parent="1" source="uSHFyEGqvVHMhk2APjxr-182" target="uSHFyEGqvVHMhk2APjxr-177">
          <mxGeometry relative="1" as="geometry" />
        </mxCell>
        <mxCell id="uSHFyEGqvVHMhk2APjxr-179" value="No" style="edgeLabel;html=1;align=center;verticalAlign=middle;resizable=0;points=[];" vertex="1" connectable="0" parent="uSHFyEGqvVHMhk2APjxr-178">
          <mxGeometry x="-0.613" relative="1" as="geometry">
            <mxPoint x="-5" as="offset" />
          </mxGeometry>
        </mxCell>
        <mxCell id="uSHFyEGqvVHMhk2APjxr-180" style="edgeStyle=orthogonalEdgeStyle;rounded=0;orthogonalLoop=1;jettySize=auto;html=1;exitX=1;exitY=0.5;exitDx=0;exitDy=0;entryX=0;entryY=0.5;entryDx=0;entryDy=0;" edge="1" parent="1" source="uSHFyEGqvVHMhk2APjxr-182" target="uSHFyEGqvVHMhk2APjxr-193">
          <mxGeometry relative="1" as="geometry" />
        </mxCell>
        <mxCell id="uSHFyEGqvVHMhk2APjxr-181" value="Yes" style="edgeLabel;html=1;align=center;verticalAlign=middle;resizable=0;points=[];" vertex="1" connectable="0" parent="uSHFyEGqvVHMhk2APjxr-180">
          <mxGeometry x="-0.1095" y="-2" relative="1" as="geometry">
            <mxPoint y="-2" as="offset" />
          </mxGeometry>
        </mxCell>
        <mxCell id="uSHFyEGqvVHMhk2APjxr-182" value="i &amp;gt; 1 and&amp;nbsp;&lt;div&gt;list[i]==l[i-1]==l[i-2]&lt;/div&gt;" style="rhombus;whiteSpace=wrap;html=1;fontSize=10;" vertex="1" parent="1">
          <mxGeometry x="245" y="630" width="110" height="80" as="geometry" />
        </mxCell>
        <mxCell id="uSHFyEGqvVHMhk2APjxr-183" style="edgeStyle=orthogonalEdgeStyle;rounded=0;orthogonalLoop=1;jettySize=auto;html=1;exitX=0.5;exitY=1;exitDx=0;exitDy=0;entryX=0.5;entryY=0;entryDx=0;entryDy=0;" edge="1" parent="1" source="uSHFyEGqvVHMhk2APjxr-187" target="uSHFyEGqvVHMhk2APjxr-182">
          <mxGeometry relative="1" as="geometry" />
        </mxCell>
        <mxCell id="uSHFyEGqvVHMhk2APjxr-184" value="No" style="edgeLabel;html=1;align=center;verticalAlign=middle;resizable=0;points=[];" vertex="1" connectable="0" parent="uSHFyEGqvVHMhk2APjxr-183">
          <mxGeometry x="-0.5109" y="1" relative="1" as="geometry">
            <mxPoint as="offset" />
          </mxGeometry>
        </mxCell>
        <mxCell id="uSHFyEGqvVHMhk2APjxr-185" style="edgeStyle=orthogonalEdgeStyle;rounded=0;orthogonalLoop=1;jettySize=auto;html=1;exitX=1;exitY=0.5;exitDx=0;exitDy=0;entryX=0;entryY=0.5;entryDx=0;entryDy=0;" edge="1" parent="1" source="uSHFyEGqvVHMhk2APjxr-187" target="uSHFyEGqvVHMhk2APjxr-191">
          <mxGeometry relative="1" as="geometry" />
        </mxCell>
        <mxCell id="uSHFyEGqvVHMhk2APjxr-186" value="Yes" style="edgeLabel;html=1;align=center;verticalAlign=middle;resizable=0;points=[];" vertex="1" connectable="0" parent="uSHFyEGqvVHMhk2APjxr-185">
          <mxGeometry x="0.1797" y="-1" relative="1" as="geometry">
            <mxPoint x="-8" y="-1" as="offset" />
          </mxGeometry>
        </mxCell>
        <mxCell id="uSHFyEGqvVHMhk2APjxr-187" value="list[i] &amp;lt;= list[i - 1]" style="rhombus;whiteSpace=wrap;html=1;fontSize=10;" vertex="1" parent="1">
          <mxGeometry x="257.5" y="520" width="85" height="80" as="geometry" />
        </mxCell>
        <mxCell id="uSHFyEGqvVHMhk2APjxr-188" style="edgeStyle=orthogonalEdgeStyle;rounded=0;orthogonalLoop=1;jettySize=auto;html=1;exitX=1;exitY=0.5;exitDx=0;exitDy=0;entryX=0;entryY=0.5;entryDx=0;entryDy=0;" edge="1" parent="1" source="uSHFyEGqvVHMhk2APjxr-189" target="uSHFyEGqvVHMhk2APjxr-168">
          <mxGeometry relative="1" as="geometry" />
        </mxCell>
        <mxCell id="uSHFyEGqvVHMhk2APjxr-189" value="Return True" style="rounded=1;whiteSpace=wrap;html=1;" vertex="1" parent="1">
          <mxGeometry x="400" y="440" width="120" height="40" as="geometry" />
        </mxCell>
        <mxCell id="uSHFyEGqvVHMhk2APjxr-190" style="edgeStyle=orthogonalEdgeStyle;rounded=0;orthogonalLoop=1;jettySize=auto;html=1;exitX=1;exitY=0.5;exitDx=0;exitDy=0;entryX=0;entryY=0.5;entryDx=0;entryDy=0;" edge="1" parent="1" source="uSHFyEGqvVHMhk2APjxr-191" target="uSHFyEGqvVHMhk2APjxr-194">
          <mxGeometry relative="1" as="geometry" />
        </mxCell>
        <mxCell id="uSHFyEGqvVHMhk2APjxr-191" value="Return False" style="rounded=1;whiteSpace=wrap;html=1;" vertex="1" parent="1">
          <mxGeometry x="400" y="540" width="120" height="40" as="geometry" />
        </mxCell>
        <mxCell id="uSHFyEGqvVHMhk2APjxr-192" style="edgeStyle=orthogonalEdgeStyle;rounded=0;orthogonalLoop=1;jettySize=auto;html=1;exitX=1;exitY=0.5;exitDx=0;exitDy=0;entryX=0;entryY=0.5;entryDx=0;entryDy=0;" edge="1" parent="1" source="uSHFyEGqvVHMhk2APjxr-193" target="uSHFyEGqvVHMhk2APjxr-195">
          <mxGeometry relative="1" as="geometry" />
        </mxCell>
        <mxCell id="uSHFyEGqvVHMhk2APjxr-193" value="Return False" style="rounded=1;whiteSpace=wrap;html=1;" vertex="1" parent="1">
          <mxGeometry x="400" y="650" width="120" height="40" as="geometry" />
        </mxCell>
        <mxCell id="uSHFyEGqvVHMhk2APjxr-194" value="" style="ellipse;whiteSpace=wrap;html=1;aspect=fixed;strokeWidth=3;" vertex="1" parent="1">
          <mxGeometry x="550" y="540" width="40" height="40" as="geometry" />
        </mxCell>
        <mxCell id="uSHFyEGqvVHMhk2APjxr-195" value="" style="ellipse;whiteSpace=wrap;html=1;aspect=fixed;strokeWidth=3;" vertex="1" parent="1">
          <mxGeometry x="550" y="650" width="40" height="40" as="geometry" />
        </mxCell>
      </root>
    </mxGraphModel>
  </diagram>
</mxfile>
